# xmcd
#
# Track frame offsets:
#	150
#	43653
#	98323
#	136145
#
# Disc length: 2470 seconds
#
# Revision: 1
# Processed by: cddbd v1.5.1PL0 Copyright (c) Steve Scherf et al.
# Submitted via: CDex 1.50Beta5
#
DISCID=2509a404
DTITLE=Dvorak, Anton - Symphonie N°9 "Du Nouveau Monde"
DYEAR=1900
DGENRE=Classical
TTITLE0=Adagio - Allegro Molto
TTITLE1=Largo
TTITLE2=Scherzo (Molto Vivace)
TTITLE3=Allegro Con Fuoco
EXTD=
EXTT0=
EXTT1=
EXTT2=
EXTT3=
PLAYORDER=
